<svg xmlns="http://www.w3.org/2000/svg" viewBox="0 0 45.73 25.1"><defs><style>.cls-1{fill:#fff;}.cls-2{fill:#c2c21a;}</style></defs><title>Asset 1</title><g id="Layer_2" data-name="Layer 2"><g id="Layer_1-2" data-name="Layer 1"><path class="cls-1" d="M17.46,10.32l.72-6.48s2.34-1.08,2.7,0A64.32,64.32,0,0,1,22,17.34c-.36,3.78-3.42,4.14-3.42,4.14s-2.7,2.16-3.78,1.62a56.32,56.32,0,0,1-5.94-4A44.18,44.18,0,0,1,5.4,16.08L0,13.27s.18-3.13,1.08-2.41,4.68,1.62,4.68,1.62-5.4-5.58-4-6.3S5.4,7.26,5.4,7.26l2.52,3.06S6.3,3.12,4,2.4c0,0,1.8-2.52,3.6,0L11,7.26S7.2.6,8.28.06s5.4,2.88,6.12,6.66S17.46,10.32,17.46,10.32Z"/><path class="cls-2" d="M17.39,18.75s-4.6,1-6.34-1.12S12,13,13.72,14.56c0,0,1.07-4.31,2.9-2.55S19.64,16.54,17.39,18.75Z"/><path class="cls-1" d="M28.27,12.24l-.72-6.48s-2.34-1.08-2.7,0a64.32,64.32,0,0,0-1.08,13.5c.36,3.78,3.42,4.14,3.42,4.14S29.89,25.56,31,25a56.32,56.32,0,0,0,5.94-4A44.18,44.18,0,0,0,40.33,18l5.4-2.81s-.18-3.13-1.08-2.41S40,14.4,40,14.4s5.4-5.58,4-6.3-3.6,1.08-3.6,1.08l-2.52,3.06s1.62-7.2,4-7.92c0,0-1.8-2.52-3.6,0L34.71,9.18S38.53,2.52,37.45,2s-5.4,2.88-6.12,6.66S28.27,12.24,28.27,12.24Z"/><path class="cls-2" d="M28.34,20.67s4.6,1,6.34-1.12S33.76,14.9,32,16.48c0,0-1.08-4.31-2.91-2.55S26.08,18.46,28.34,20.67Z"/></g></g></svg>